[Header]
FileType HTR
DataType HTRS
FileVersion 1
NumSegments 64
NumFrames 3
DataFrameRate 24
EulerRotationOrder ZYX
CalibrationUnits mm
RotationUnits Degrees
GlobalAxisofGravity Y
BoneLengthAxis Y
ScaleFactor 1.0
[SegmentNames&Hierarchy]
Hips	GLOBAL
Spine	Hips
Spine1	Spine
Spine2	Spine1
Neck	Spine2
Head	Neck
LeftEye	Head
RightEye	Head
LeftShoulder	Spine2
LeftArm	LeftShoulder
LeftForeArm	LeftArm
LeftHand	LeftForeArm
LeftHandThumb1	LeftHand
LeftHandThumb2	LeftHandThumb1
LeftHandThumb3	LeftHandThumb2
LeftHandThumb4	LeftHandThumb3
LeftHandIndex1	LeftHand
LeftHandIndex2	LeftHandIndex1
LeftHandIndex3	LeftHandIndex2
LeftHandIndex4	LeftHandIndex3
LeftHandMiddle1	LeftHand
LeftHandMiddle2	LeftHandMiddle1
LeftHandMiddle3	LeftHandMiddle2
LeftHandMiddle4	LeftHandMiddle3
LeftHandRing1	LeftHand
LeftHandRing2	LeftHandRing1
LeftHandRing3	LeftHandRing2
LeftHandRing4	LeftHandRing3
LeftHandPinky1	LeftHand
LeftHandPinky2	LeftHandPinky1
LeftHandPinky3	LeftHandPinky2
LeftHandPinky4	LeftHandPinky3
RightShoulder	Spine2
RightArm	RightShoulder
RightForeArm	RightArm
RightHand	RightForeArm
RightHandPinky1	RightHand
RightHandPinky2	RightHandPinky1
RightHandPinky3	RightHandPinky2
RightHandPinky4	RightHandPinky3
RightHandRing1	RightHand
RightHandRing2	RightHandRing1
RightHandRing3	RightHandRing2
RightHandRing4	RightHandRing3
RightHandMiddle1	RightHand
RightHandMiddle2	RightHandMiddle1
RightHandMiddle3	RightHandMiddle2
RightHandMiddle4	RightHandMiddle3
RightHandIndex1	RightHand
RightHandIndex2	RightHandIndex1
RightHandIndex3	RightHandIndex2
RightHandIndex4	RightHandIndex3
RightHandThumb1	RightHand
RightHandThumb2	RightHandThumb1
RightHandThumb3	RightHandThumb2
RightHandThumb4	RightHandThumb3
LeftUpLeg	Hips
LeftLeg	LeftUpLeg
LeftFoot	LeftLeg
LeftToeBase	LeftFoot
RightUpLeg	Hips
RightLeg	RightUpLeg
RightFoot	RightLeg
RightToeBase	RightFoot
[BasePosition]
Hips	0	0	0	0	0	0	1
Spine	0	0	0	0	0	0	1
Spine1	0	0	0	0	0	0	1
Spine2	0	0	0	0	0	0	1
Neck	0	0	0	0	0	0	1
Head	0	0	0	0	0	0	1
LeftEye	0	0	0	0	0	0	1
RightEye	0	0	0	0	0	0	1
LeftShoulder	0	0	0	0	0	0	1
LeftArm	0	0	0	0	0	0	1
LeftForeArm	0	0	0	0	0	0	1
LeftHand	0	0	0	0	0	0	1
LeftHandThumb1	0	0	0	0	0	0	1
LeftHandThumb2	0	0	0	0	0	0	1
LeftHandThumb3	0	0	0	0	0	0	1
LeftHandThumb4	0	0	0	0	0	0	1
LeftHandIndex1	0	0	0	0	0	0	1
LeftHandIndex2	0	0	0	0	0	0	1
LeftHandIndex3	0	0	0	0	0	0	1
LeftHandIndex4	0	0	0	0	0	0	1
LeftHandMiddle1	0	0	0	0	0	0	1
LeftHandMiddle2	0	0	0	0	0	0	1
LeftHandMiddle3	0	0	0	0	0	0	1
LeftHandMiddle4	0	0	0	0	0	0	1
LeftHandRing1	0	0	0	0	0	0	1
LeftHandRing2	0	0	0	0	0	0	1
LeftHandRing3	0	0	0	0	0	0	1
LeftHandRing4	0	0	0	0	0	0	1
LeftHandPinky1	0	0	0	0	0	0	1
LeftHandPinky2	0	0	0	0	0	0	1
LeftHandPinky3	0	0	0	0	0	0	1
LeftHandPinky4	0	0	0	0	0	0	1
RightShoulder	0	0	0	0	0	0	1
RightArm	0	0	0	0	0	0	1
RightForeArm	0	0	0	0	0	0	1
RightHand	0	0	0	0	0	0	1
RightHandPinky1	0	0	0	0	0	0	1
RightHandPinky2	0	0	0	0	0	0	1
RightHandPinky3	0	0	0	0	0	0	1
RightHandPinky4	0	0	0	0	0	0	1
RightHandRing1	0	0	0	0	0	0	1
RightHandRing2	0	0	0	0	0	0	1
RightHandRing3	0	0	0	0	0	0	1
RightHandRing4	0	0	0	0	0	0	1
RightHandMiddle1	0	0	0	0	0	0	1
RightHandMiddle2	0	0	0	0	0	0	1
RightHandMiddle3	0	0	0	0	0	0	1
RightHandMiddle4	0	0	0	0	0	0	1
RightHandIndex1	0	0	0	0	0	0	1
RightHandIndex2	0	0	0	0	0	0	1
RightHandIndex3	0	0	0	0	0	0	1
RightHandIndex4	0	0	0	0	0	0	1
RightHandThumb1	0	0	0	0	0	0	1
RightHandThumb2	0	0	0	0	0	0	1
RightHandThumb3	0	0	0	0	0	0	1
RightHandThumb4	0	0	0	0	0	0	1
LeftUpLeg	0	0	0	0	0	0	1
LeftLeg	0	0	0	0	0	0	1
LeftFoot	0	0	0	0	0	0	1
LeftToeBase	0	0	0	0	0	0	1
RightUpLeg	0	0	0	0	0	0	1
RightLeg	0	0	0	0	0	0	1
RightFoot	0	0	0	0	0	0	1
RightToeBase	0	0	0	0	0	0	1
[Hips]
18	47.69781113	1032.284668	-59.22374725	0.7272426486	-79.27649689	-5.9008708	1.0
19	30.93215942	1029.413086	-46.11214447	4.785187721	-82.93032074	-9.616822243	1.0
20	15.02719879	1027.217529	-32.69773483	18.89336205	-86.07496643	-23.40849686	1.0
[Spine]
18	0	101.8159943	1.315000057	4.221100807	0.9347476363	2.41394639	1.0
19	0	101.8159943	1.315000057	4.230750084	0.678455174	3.214726925	1.0
20	0	101.8159943	1.315000057	4.083340168	0.5969153643	3.730548143	1.0
[Spine1]
18	0	100.8349991	-10.00800037	1.788662553	-0.0570085384	-2.6596632	1.0
19	0	100.8349991	-10.00800037	1.734455943	-0.3157645166	-2.027924538	1.0
20	0	100.8349991	-10.00800037	1.584522009	-0.1184962839	-1.25866282	1.0
[Spine2]
18	0	91	-13.73399925	1.78636837	0.1284193695	-0.03188279644	1.0
19	0	91	-13.73399925	1.756090403	-0.1699038893	-0.1007324457	1.0
20	0	91	-13.73399925	1.612059712	-0.01655081846	-0.0196894519	1.0
[Neck]
18	0	166.7169952	-25.16200066	5.903487206	-2.458982944	0.2306581289	1.0
19	0	166.7169952	-25.16200066	5.711788654	-1.665830016	-0.03397621214	1.0
20	0	166.7169952	-25.16200066	5.635301113	-1.01992023	-0.1558657587	1.0
[Head]
18	0	96.17900085	16.84999847	-5.348028183	-10.13727379	4.648095608	1.0
19	0	96.17900085	16.84999847	-6.028810501	-7.432011127	3.312075138	1.0
20	0	96.17900085	16.84999847	-6.453706741	-4.792982578	2.155124426	1.0
[LeftEye]
18	30.6760006	64.09500122	92.83599854	0	0	0	1.0
19	30.6760006	64.09500122	92.83599854	0	0	0	1.0
20	30.6760006	64.09500122	92.83599854	0	0	0	1.0
[RightEye]
18	-30.6760006	64.09500122	92.83499908	0	0	0	1.0
19	-30.6760006	64.09500122	92.83499908	0	0	0	1.0
20	-30.6760006	64.09500122	92.83499908	0	0	0	1.0
[LeftShoulder]
18	45.70400238	109.4599991	-26.28000069	4.887552261	-16.35395622	-14.69967651	1.0
19	45.70400238	109.4599991	-26.28000069	4.981007099	-16.37131882	-15.52385807	1.0
20	45.70400238	109.4599991	-26.28000069	5.034394264	-16.18304062	-15.8563242	1.0
[LeftArm]
18	105.923996	-5.24600029	-22.32099915	14.86428356	0.006752493791	-60.52555466	1.0
19	105.923996	-5.24600029	-22.32099915	13.95084286	-0.7677391171	-61.99464798	1.0
20	105.923996	-5.24600029	-22.32099915	14.08267403	-1.749835014	-63.88570786	1.0
[LeftForeArm]
18	278.414978	-0.0009999999311	0	5.931920441e-06	-6.010186672	-0.0002166049817	1.0
19	278.414978	-0.0009999999311	0	-2.548459861e-06	-4.992507935	-0.0002001907123	1.0
20	278.414978	-0.0009999999311	0	2.449261729e-06	-3.851745844	-0.0002021003602	1.0
[LeftHand]
18	283.2879944	0	0	-29.93727875	2.609956503	-2.340658188	1.0
19	283.2879944	0	0	-30.00059509	0.1393217891	-3.275898695	1.0
20	283.2879944	0	0	-30.09093094	-2.137421131	-4.161663055	1.0
[LeftHandThumb1]
18	24.6609993	-15.75	26.8239994	-0.4889863729	2.201392412	4.818544865	1.0
19	24.6609993	-15.75	26.8239994	-0.4889863729	2.201392412	4.818544865	1.0
20	24.6609993	-15.75	26.8239994	-0.4889863729	2.201392412	4.818544865	1.0
[LeftHandThumb2]
18	32.29800034	-18.64699936	18.64699936	20.5679493	19.09402847	22.92079353	1.0
19	32.29800034	-18.64699936	18.64699936	20.71474266	19.23882866	22.92651939	1.0
20	32.29800034	-18.64699936	18.64699936	20.70771599	19.14276505	22.85368347	1.0
[LeftHandThumb3]
18	26.52600098	-15.31499958	15.31499958	-13.16409492	5.509028912	7.982416153	1.0
19	26.52600098	-15.31499958	15.31499958	-13.16758442	5.494475842	7.98633337	1.0
20	26.52600098	-15.31499958	15.31499958	-13.14952087	5.468933105	8.002287865	1.0
[LeftHandThumb4]
18	19.54599953	-11.28499985	11.28499985	0	0	0	1.0
19	19.54599953	-11.28499985	11.28499985	0	0	0	1.0
20	19.54599953	-11.28499985	11.28499985	0	0	0	1.0
[LeftHandIndex1]
18	91.09299469	-5.170999527	22.60099792	0.1045576409	-0.8633252382	-8.495577812	1.0
19	91.09299469	-5.170999527	22.60099792	0.08181606233	-0.8638730645	-8.701154709	1.0
20	91.09299469	-5.170999527	22.60099792	0.04865146428	-0.8636347055	-9.006846428	1.0
[LeftHandIndex2]
18	36.76399994	0	0	-0.2661747336	1.743468285	-17.35903549	1.0
19	36.76399994	0	0	-0.2687434256	1.751696467	-17.44364929	1.0
20	36.76399994	0	0	-0.2668106258	1.745529532	-17.38021469	1.0
[LeftHandIndex3]
18	28.83100128	0	0	-0.05718187243	0.8155858517	-8.020907402	1.0
19	28.83100128	0	0	-0.05840653181	0.824108243	-8.10551548	1.0
20	28.83100128	0	0	-0.05748591572	0.8177105188	-8.042093277	1.0
[LeftHandIndex4]
18	23.92700005	0	0	0	0	0	1.0
19	23.92700005	0	0	0	0	0	1.0
20	23.92700005	0	0	0	0	0	1.0
[LeftHandMiddle1]
18	95.33399963	0	0	-0.8052852154	2.684483051	-15.87629223	1.0
19	95.33399963	0	0	-0.8152445555	2.688213825	-16.02333832	1.0
20	95.33399963	0	0	-0.8285720348	2.707350016	-16.21880913	1.0
[LeftHandMiddle2]
18	36.98199844	0	0	-0.2679306865	1.749101639	-17.41683197	1.0
19	36.98199844	0	0	-0.2687935829	1.751829267	-17.44484711	1.0
20	36.98199844	0	0	-0.2692747116	1.753364682	-17.46066093	1.0
[LeftHandMiddle3]
18	29.50900078	0	0	-0.2995288372	1.846748471	-18.42389679	1.0
19	29.50900078	0	0	-0.3004315197	1.849461913	-18.4519062	1.0
20	29.50900078	0	0	-0.3009376824	1.850987792	-18.46770859	1.0
[LeftHandMiddle4]
18	28.3390007	0	0	0	0	0	1.0
19	28.3390007	0	0	0	0	0	1.0
20	28.3390007	0	0	0	0	0	1.0
[LeftHandRing1]
18	91.04499817	-0.4390000105	-18.65100098	-1.240581989	3.280103922	-21.90193939	1.0
19	91.04499817	-0.4390000105	-18.65100098	-1.25293076	3.274796009	-22.06341743	1.0
20	91.04499817	-0.4390000105	-18.65100098	-1.267716169	3.212975979	-22.25710487	1.0
[LeftHandRing2]
18	31.54000092	0	0	-0.3854325414	2.086872816	-20.92661476	1.0
19	31.54000092	0	0	-0.3853203952	2.086592436	-20.92342758	1.0
20	31.54000092	0	0	-0.3851846755	2.086247921	-20.91992569	1.0
[LeftHandRing3]
18	29.37700081	0	0	-0.2822538018	1.79408741	-17.87986183	1.0
19	29.37700081	0	0	-0.2821493149	1.793774486	-17.8767662	1.0
20	29.37700081	0	0	-0.2820314467	1.793441176	-17.87339401	1.0
[LeftHandRing4]
18	26.47500038	0	0	0	0	0	1.0
19	26.47500038	0	0	0	0	0	1.0
20	26.47500038	0	0	0	0	0	1.0
[LeftHandPinky1]
18	80.77799988	-4.887000084	-38.06099701	-1.781869411	5.164773941	-27.57530594	1.0
19	80.77799988	-4.887000084	-38.06099701	-1.831697464	4.980666161	-27.74807358	1.0
20	80.77799988	-4.887000084	-38.06099701	-1.919426918	4.689483643	-28.11240959	1.0
[LeftHandPinky2]
18	36	0	0	-0.2680009007	1.749307394	-17.41897392	1.0
19	36	0	0	-0.2680027485	1.749315619	-17.41896439	1.0
20	36	0	0	-0.2679981887	1.749310017	-17.41897011	1.0
[LeftHandPinky3]
18	21.14200211	0	0	-0.2409499288	1.660688877	-16.51002884	1.0
19	21.14200211	0	0	-0.2406973839	1.65979588	-16.50095558	1.0
20	21.14200211	0	0	-0.240474239	1.659087777	-16.49357414	1.0
[LeftHandPinky4]
18	19.75699997	0	0	0	0	0	1.0
19	19.75699997	0	0	0	0	0	1.0
20	19.75699997	0	0	0	0	0	1.0
[RightShoulder]
18	-45.70000076	109.4620056	-26.28000069	4.874318123	13.42263889	14.21991348	1.0
19	-45.70000076	109.4620056	-26.28000069	4.755426407	14.27281952	13.62282276	1.0
20	-45.70000076	109.4620056	-26.28000069	4.633609295	15.34011364	13.09594154	1.0
[RightArm]
18	-105.9280014	-5.248000145	-22.32099915	1.931465268	-2.853605747	67.30262756	1.0
19	-105.9280014	-5.248000145	-22.32099915	10.900033	-2.093540192	67.11123657	1.0
20	-105.9280014	-5.248000145	-22.32099915	18.7046032	-1.519387484	66.91417694	1.0
[RightForeArm]
18	-278.414978	0	0	-5.608146836e-08	9.797450066	-5.612475888e-07	1.0
19	-278.414978	0	0	-8.483607417e-06	9.763232231	-2.138570926e-05	1.0
20	-278.414978	0	0	3.01891896e-06	9.507547379	3.091315421e-06	1.0
[RightHand]
18	-283.2879944	0	0.0009999999311	-4.670499325	5.061489105	-8.10896492	1.0
19	-283.2879944	0	0.0009999999311	-12.07448006	2.598368883	-7.899394989	1.0
20	-283.2879944	0	0.0009999999311	-17.28474808	0.8839358687	-4.767047405	1.0
[RightHandPinky1]
18	-80.76699829	-4.885000229	-38.06000137	-1.433234692	-5.086987019	26.10420418	1.0
19	-80.76699829	-4.885000229	-38.06000137	-1.431546211	-5.110473633	26.02442741	1.0
20	-80.76699829	-4.885000229	-38.06000137	-1.428910375	-5.076204777	25.91146469	1.0
[RightHandPinky2]
18	-36	0	0.0009999999311	-0.2117219567	-1.38555932	17.39492607	1.0
19	-36	0	0.0009999999311	-0.2120661139	-1.386627674	17.40870285	1.0
20	-36	0	0.0009999999311	-0.2112592906	-1.384084225	17.37611198	1.0
[RightHandPinky3]
18	-21.14200211	0	0	-0.1909900755	-1.3174721	16.49610138	1.0
19	-21.14200211	0	0	-0.191289708	-1.318525434	16.50967216	1.0
20	-21.14200211	0	0	-0.1905442029	-1.315977931	16.47666168	1.0
[RightHandPinky4]
18	-19.75699997	0	0	0	0	0	1.0
19	-19.75699997	0	0	0	0	0	1.0
20	-19.75699997	0	0	0	0	0	1.0
[RightHandRing1]
18	-91.03599548	-0.4390000105	-18.65100098	-1.030147552	-2.66123271	20.2517128	1.0
19	-91.03599548	-0.4390000105	-18.65100098	-1.024267793	-2.579022884	20.16361809	1.0
20	-91.03599548	-0.4390000105	-18.65100098	-1.014294624	-2.491491318	20.01286507	1.0
[RightHandRing2]
18	-31.54000092	0	0	-0.3045567274	-1.653143764	20.87499428	1.0
19	-31.54000092	0	0	-0.3043796718	-1.65269506	20.86899376	1.0
20	-31.54000092	0	0	-0.3035410941	-1.650488496	20.83990288	1.0
[RightHandRing3]
18	-29.37700081	0	0	-0.2227295637	-1.420241117	17.82479477	1.0
19	-29.37700081	0	0	-0.2225850523	-1.419807792	17.81924629	1.0
20	-29.37700081	0	0	-0.2218851745	-1.417625666	17.7907486	1.0
[RightHandRing4]
18	-26.47500038	0	0	0	0	0	1.0
19	-26.47500038	0	0	0	0	0	1.0
20	-26.47500038	0	0	0	0	0	1.0
[RightHandMiddle1]
18	-95.32500458	0	0	-0.6717504263	-2.237381697	14.50555134	1.0
19	-95.32500458	0	0	-0.6595247388	-2.19433856	14.29834843	1.0
20	-95.32500458	0	0	-0.6464190483	-2.170824289	14.07510185	1.0
[RightHandMiddle2]
18	-36.98199844	0	0	-0.2119222134	-1.386178017	17.38342667	1.0
19	-36.98199844	0	0	-0.2110335827	-1.383346796	17.34657288	1.0
20	-36.98199844	0	0	-0.2101186961	-1.380431533	17.30891609	1.0
[RightHandMiddle3]
18	-29.50900078	0	0	-0.2370070964	-1.465883493	18.39188957	1.0
19	-29.50900078	0	0	-0.2360675186	-1.463072181	18.35515594	1.0
20	-29.50900078	0	0	-0.2350985557	-1.460169315	18.31752396	1.0
[RightHandMiddle4]
18	-28.3390007	0	0.0009999999311	0	0	0	1.0
19	-28.3390007	0	0.0009999999311	0	0	0	1.0
20	-28.3390007	0	0.0009999999311	0	0	0	1.0
[RightHandIndex1]
18	-91.08300018	-5.167999744	22.60099792	0.141087085	1.431219339	6.354249001	1.0
19	-91.08300018	-5.167999744	22.60099792	0.1147520691	1.527227879	6.121534824	1.0
20	-91.08300018	-5.167999744	22.60099792	0.09817569703	1.606088519	5.868768215	1.0
[RightHandIndex2]
18	-36.76399994	0	0	-0.2130687982	-1.389822364	17.43048096	1.0
19	-36.76399994	0	0	-0.212438181	-1.387818098	17.40452003	1.0
20	-36.76399994	0	0	-0.2128270119	-1.389059186	17.42073822	1.0
[RightHandIndex3]
18	-28.83100128	0	0	-0.04601222649	-0.6519494653	8.076351166	1.0
19	-28.83100128	0	0	-0.04572271183	-0.6498616934	8.05037117	1.0
20	-28.83100128	0	0	-0.04590925574	-0.6511695385	8.066613197	1.0
[RightHandIndex4]
18	-23.92700005	0	0	0	0	0	1.0
19	-23.92700005	0	0	0	0	0	1.0
20	-23.92700005	0	0	0	0	0	1.0
[RightHandThumb1]
18	-24.64799881	-15.72700024	26.82600021	-1.658462644	-0.289145112	-4.221315384	1.0
19	-24.64799881	-15.72700024	26.82600021	-1.658462644	-0.289145112	-4.221315384	1.0
20	-24.64799881	-15.72700024	26.82600021	-1.658462644	-0.289145112	-4.221315384	1.0
[RightHandThumb2]
18	-32.29800034	-18.64699936	18.64699936	20.63928986	-21.7533493	-22.82069206	1.0
19	-32.29800034	-18.64699936	18.64699936	20.01486778	-21.71260262	-22.5767498	1.0
20	-32.29800034	-18.64699936	18.64699936	19.51289368	-21.40987396	-22.30312538	1.0
[RightHandThumb3]
18	-26.52600098	-15.31399918	15.31399918	-14.347929	-7.280766487	-11.03613281	1.0
19	-26.52600098	-15.31399918	15.31399918	-14.29610825	-7.536322594	-10.98843956	1.0
20	-26.52600098	-15.31399918	15.31399918	-14.25419521	-7.73002243	-10.92478275	1.0
[RightHandThumb4]
18	-19.54599953	-11.28499985	11.28499985	0	0	0	1.0
19	-19.54599953	-11.28499985	11.28499985	0	0	0	1.0
20	-19.54599953	-11.28499985	11.28499985	0	0	0	1.0
[LeftUpLeg]
18	82.07800293	-67.51699829	-15.99599934	-13.94842815	10.70948505	10.55348873	1.0
19	82.07800293	-67.51699829	-15.99599934	-12.23017025	7.952397823	10.6890049	1.0
20	82.07800293	-67.51699829	-15.99599934	-10.79976654	11.66361141	8.99135685	1.0
[LeftLeg]
18	0	-443.7049866	2.845999956	19.91637993	5.186161995	-2.452467203	1.0
19	0	-443.7049866	2.845999956	13.83272266	9.145957947	-0.9282960892	1.0
20	0	-443.7049866	2.845999956	12.32959652	5.496862411	1.246046424	1.0
[LeftFoot]
18	0	-444.2789917	-29.8219986	4.831654549	6.371425629	-6.534707069	1.0
19	0	-444.2789917	-29.8219986	3.714840412	-4.632527828	-10.52865124	1.0
20	0	-444.2789917	-29.8219986	2.738750696	-7.727138519	-9.127159119	1.0
[LeftToeBase]
18	0	-87.28699493	107.1060028	-10.04919338	2.19624917e-06	1.755768608e-06	1.0
19	0	-87.28699493	107.1060028	-10.96188164	-5.804427929e-06	8.891563994e-06	1.0
20	0	-87.28699493	107.1060028	-7.327200413	3.567388558e-05	2.446089638e-06	1.0
[RightUpLeg]
18	-82.07800293	-67.51699829	-15.99599934	-3.268367052	-19.88197708	2.469622135	1.0
19	-82.07800293	-67.51699829	-15.99599934	-4.044891834	-16.63042831	2.418836594	1.0
20	-82.07800293	-67.51699829	-15.99599934	-4.379031181	-13.62258053	2.6182127	1.0
[RightLeg]
18	0	-443.7049866	2.861999989	12.69063187	2.88027215	2.147491217	1.0
19	0	-443.7049866	2.861999989	15.11390877	-0.7219576836	0.2061290443	1.0
20	0	-443.7049866	2.861999989	16.64278793	-5.117975235	-2.279266119	1.0
[RightFoot]
18	0	-444.2770081	-29.83799934	-4.981755733	-19.90303993	-3.471038342	1.0
19	0	-444.2770081	-29.83799934	-7.175372601	-16.33824348	-0.8418651223	1.0
20	0	-444.2770081	-29.83799934	-8.366835594	-11.65047646	1.123318911	1.0
[RightToeBase]
18	0	-87.28699493	107.1060028	-8.364869118	-1.543371923e-06	1.766348873e-06	1.0
19	0	-87.28699493	107.1060028	-7.369029999	-1.07231308e-05	1.731705083e-06	1.0
20	0	-87.28699493	107.1060028	-6.776178837	1.679572961e-05	4.758176075e-08	1.0
[EndOfFile]
